@startuml

interface Listener
abstract class SearchListener{
+         void searchStarted(Search *search)
+         void searchFinished(Search *searcher)
+         void stateAdvanced(Search *searcher)
+         void stateRemoved(Search *search, ExecutionState *state)
}

abstract class VMListener{
   + void executeInstruction(VM *vm)
+ void instructionExecuted(VM *vm)
        + void objectCreated(VM *vm)
        + void objectDetroyed(VM *vm)
        + void methodEntered(VM *vm, Function *f)
        + void methodExited(VM *vm, Function *f)

}

class Reporter{
- unsigned long long totalPaths
}

Listener <|..  SearchListener
Listener <|..  VMListener
SearchListener  <|-- Reporter

Title "Reporter类图"
@enduml